<svg width="24" height="24" viewBox="0 0 24 24" fill="none" xmlns="http://www.w3.org/2000/svg">
  <g transform="translate(12,12)">
    <!-- Spiral rays radiating from center -->
    <path d="M0,-10 L0,-8" stroke="currentColor" stroke-width="0.8" transform="rotate(0)"/>
    <path d="M0,-10 L0,-8" stroke="currentColor" stroke-width="0.8" transform="rotate(15)"/>
    <path d="M0,-10 L0,-8" stroke="currentColor" stroke-width="0.8" transform="rotate(30)"/>
    <path d="M0,-10 L0,-8" stroke="currentColor" stroke-width="0.8" transform="rotate(45)"/>
    <path d="M0,-10 L0,-8" stroke="currentColor" stroke-width="0.8" transform="rotate(60)"/>
    <path d="M0,-10 L0,-8" stroke="currentColor" stroke-width="0.8" transform="rotate(75)"/>
    <path d="M0,-10 L0,-8" stroke="currentColor" stroke-width="0.8" transform="rotate(90)"/>
    <path d="M0,-10 L0,-8" stroke="currentColor" stroke-width="0.8" transform="rotate(105)"/>
    <path d="M0,-10 L0,-8" stroke="currentColor" stroke-width="0.8" transform="rotate(120)"/>
    <path d="M0,-10 L0,-8" stroke="currentColor" stroke-width="0.8" transform="rotate(135)"/>
    <path d="M0,-10 L0,-8" stroke="currentColor" stroke-width="0.8" transform="rotate(150)"/>
    <path d="M0,-10 L0,-8" stroke="currentColor" stroke-width="0.8" transform="rotate(165)"/>
    <path d="M0,-10 L0,-8" stroke="currentColor" stroke-width="0.8" transform="rotate(180)"/>
    <path d="M0,-10 L0,-8" stroke="currentColor" stroke-width="0.8" transform="rotate(195)"/>
    <path d="M0,-10 L0,-8" stroke="currentColor" stroke-width="0.8" transform="rotate(210)"/>
    <path d="M0,-10 L0,-8" stroke="currentColor" stroke-width="0.8" transform="rotate(225)"/>
    <path d="M0,-10 L0,-8" stroke="currentColor" stroke-width="0.8" transform="rotate(240)"/>
    <path d="M0,-10 L0,-8" stroke="currentColor" stroke-width="0.8" transform="rotate(255)"/>
    <path d="M0,-10 L0,-8" stroke="currentColor" stroke-width="0.8" transform="rotate(270)"/>
    <path d="M0,-10 L0,-8" stroke="currentColor" stroke-width="0.8" transform="rotate(285)"/>
    <path d="M0,-10 L0,-8" stroke="currentColor" stroke-width="0.8" transform="rotate(300)"/>
    <path d="M0,-10 L0,-8" stroke="currentColor" stroke-width="0.8" transform="rotate(315)"/>
    <path d="M0,-10 L0,-8" stroke="currentColor" stroke-width="0.8" transform="rotate(330)"/>
    <path d="M0,-10 L0,-8" stroke="currentColor" stroke-width="0.8" transform="rotate(345)"/>
    
    <!-- Longer rays for spiral effect -->
    <path d="M0,-10 L0,-6" stroke="currentColor" stroke-width="1.2" transform="rotate(0)"/>
    <path d="M0,-10 L0,-6" stroke="currentColor" stroke-width="1.2" transform="rotate(22.5)"/>
    <path d="M0,-10 L0,-6" stroke="currentColor" stroke-width="1.2" transform="rotate(45)"/>
    <path d="M0,-10 L0,-6" stroke="currentColor" stroke-width="1.2" transform="rotate(67.5)"/>
    <path d="M0,-10 L0,-6" stroke="currentColor" stroke-width="1.2" transform="rotate(90)"/>
    <path d="M0,-10 L0,-6" stroke="currentColor" stroke-width="1.2" transform="rotate(112.5)"/>
    <path d="M0,-10 L0,-6" stroke="currentColor" stroke-width="1.2" transform="rotate(135)"/>
    <path d="M0,-10 L0,-6" stroke="currentColor" stroke-width="1.2" transform="rotate(157.5)"/>
    <path d="M0,-10 L0,-6" stroke="currentColor" stroke-width="1.2" transform="rotate(180)"/>
    <path d="M0,-10 L0,-6" stroke="currentColor" stroke-width="1.2" transform="rotate(202.5)"/>
    <path d="M0,-10 L0,-6" stroke="currentColor" stroke-width="1.2" transform="rotate(225)"/>
    <path d="M0,-10 L0,-6" stroke="currentColor" stroke-width="1.2" transform="rotate(247.5)"/>
    <path d="M0,-10 L0,-6" stroke="currentColor" stroke-width="1.2" transform="rotate(270)"/>
    <path d="M0,-10 L0,-6" stroke="currentColor" stroke-width="1.2" transform="rotate(292.5)"/>
    <path d="M0,-10 L0,-6" stroke="currentColor" stroke-width="1.2" transform="rotate(315)"/>
    <path d="M0,-10 L0,-6" stroke="currentColor" stroke-width="1.2" transform="rotate(337.5)"/>
    
    <!-- Center circle -->
    <circle cx="0" cy="0" r="2" fill="currentColor" opacity="0.1"/>
  </g>
</svg>